M48
; DRILL file {KiCad 8.0.7-8.0.7-0~ubuntu24.04.1} date 2024-12-31T11:08:09-0700
; FORMAT={-:-/ absolute / metric / decimal}
; #@! TF.CreationDate,2024-12-31T11:08:09-07:00
; #@! TF.GenerationSoftware,Kicad,Pcbnew,8.0.7-8.0.7-0~ubuntu24.04.1
; #@! TF.FileFunction,Plated,1,2,PTH
FMAT,2
METRIC
; #@! TA.AperFunction,Plated,PTH,ViaDrill
T1C0.300
%
G90
G05
T1
X141.36Y-99.0
X141.361Y-103.398
X141.376Y-101.203
X142.12Y-98.996
X142.121Y-103.404
X142.35Y-101.199
X142.88Y-99.0
X142.881Y-103.4
X143.266Y-101.204
X143.64Y-98.999
X143.641Y-103.4
X144.4Y-99.004
X144.4Y-101.2
X144.401Y-103.4
X145.16Y-98.999
X145.161Y-103.4
X145.527Y-101.186
X145.92Y-99.0
X145.921Y-103.4
X146.501Y-101.201
X146.68Y-98.996
X146.683Y-103.4
X147.423Y-101.196
X147.44Y-99.002
X147.443Y-103.4
M30
