%TF.GenerationSoftware,KiCad,Pcbnew,8.0.7-8.0.7-0~ubuntu24.04.1*%
%TF.CreationDate,2024-12-31T11:08:09-07:00*%
%TF.ProjectId,Verticale Sensor Spacer,56657274-6963-4616-9c65-2053656e736f,V1*%
%TF.SameCoordinates,Original*%
%TF.FileFunction,Drillmap*%
%TF.FilePolarity,Positive*%
%FSLAX45Y45*%
G04 Gerber Fmt 4.5, Leading zero omitted, Abs format (unit mm)*
G04 Created by KiCad (PCBNEW 8.0.7-8.0.7-0~ubuntu24.04.1) date 2024-12-31 11:08:09*
%MOMM*%
%LPD*%
G01*
G04 APERTURE LIST*
%ADD10C,0.050000*%
%ADD11C,0.200000*%
G04 APERTURE END LIST*
D10*
X14890000Y-9985000D02*
X14890000Y-10255000D01*
X14740000Y-9835000D02*
G75*
G02*
X14890000Y-9985000I0J-150000D01*
G01*
X14140000Y-9835000D02*
X14740000Y-9835000D01*
X14140000Y-10405000D02*
G75*
G02*
X13990000Y-10255000I0J150000D01*
G01*
X14890000Y-10255000D02*
G75*
G02*
X14740000Y-10405000I-150000J0D01*
G01*
X13990000Y-10255000D02*
X13990000Y-9985000D01*
X13990000Y-9985000D02*
G75*
G02*
X14140000Y-9835000I150000J0D01*
G01*
X14740000Y-10405000D02*
X14140000Y-10405000D01*
D11*
X14248277Y-10718984D02*
X14248277Y-10518984D01*
X14248277Y-10518984D02*
X14295896Y-10518984D01*
X14295896Y-10518984D02*
X14324467Y-10528508D01*
X14324467Y-10528508D02*
X14343515Y-10547555D01*
X14343515Y-10547555D02*
X14353039Y-10566603D01*
X14353039Y-10566603D02*
X14362562Y-10604698D01*
X14362562Y-10604698D02*
X14362562Y-10633270D01*
X14362562Y-10633270D02*
X14353039Y-10671365D01*
X14353039Y-10671365D02*
X14343515Y-10690412D01*
X14343515Y-10690412D02*
X14324467Y-10709460D01*
X14324467Y-10709460D02*
X14295896Y-10718984D01*
X14295896Y-10718984D02*
X14248277Y-10718984D01*
X14448277Y-10718984D02*
X14448277Y-10585650D01*
X14448277Y-10623746D02*
X14457801Y-10604698D01*
X14457801Y-10604698D02*
X14467324Y-10595174D01*
X14467324Y-10595174D02*
X14486372Y-10585650D01*
X14486372Y-10585650D02*
X14505420Y-10585650D01*
X14572086Y-10718984D02*
X14572086Y-10585650D01*
X14572086Y-10518984D02*
X14562562Y-10528508D01*
X14562562Y-10528508D02*
X14572086Y-10538031D01*
X14572086Y-10538031D02*
X14581610Y-10528508D01*
X14581610Y-10528508D02*
X14572086Y-10518984D01*
X14572086Y-10518984D02*
X14572086Y-10538031D01*
X14695896Y-10718984D02*
X14676848Y-10709460D01*
X14676848Y-10709460D02*
X14667324Y-10690412D01*
X14667324Y-10690412D02*
X14667324Y-10518984D01*
X14800658Y-10718984D02*
X14781610Y-10709460D01*
X14781610Y-10709460D02*
X14772086Y-10690412D01*
X14772086Y-10690412D02*
X14772086Y-10518984D01*
X15029229Y-10718984D02*
X15029229Y-10518984D01*
X15029229Y-10518984D02*
X15095896Y-10661841D01*
X15095896Y-10661841D02*
X15162562Y-10518984D01*
X15162562Y-10518984D02*
X15162562Y-10718984D01*
X15343515Y-10718984D02*
X15343515Y-10614222D01*
X15343515Y-10614222D02*
X15333991Y-10595174D01*
X15333991Y-10595174D02*
X15314943Y-10585650D01*
X15314943Y-10585650D02*
X15276848Y-10585650D01*
X15276848Y-10585650D02*
X15257801Y-10595174D01*
X15343515Y-10709460D02*
X15324467Y-10718984D01*
X15324467Y-10718984D02*
X15276848Y-10718984D01*
X15276848Y-10718984D02*
X15257801Y-10709460D01*
X15257801Y-10709460D02*
X15248277Y-10690412D01*
X15248277Y-10690412D02*
X15248277Y-10671365D01*
X15248277Y-10671365D02*
X15257801Y-10652317D01*
X15257801Y-10652317D02*
X15276848Y-10642793D01*
X15276848Y-10642793D02*
X15324467Y-10642793D01*
X15324467Y-10642793D02*
X15343515Y-10633270D01*
X15438753Y-10585650D02*
X15438753Y-10785650D01*
X15438753Y-10595174D02*
X15457801Y-10585650D01*
X15457801Y-10585650D02*
X15495896Y-10585650D01*
X15495896Y-10585650D02*
X15514943Y-10595174D01*
X15514943Y-10595174D02*
X15524467Y-10604698D01*
X15524467Y-10604698D02*
X15533991Y-10623746D01*
X15533991Y-10623746D02*
X15533991Y-10680889D01*
X15533991Y-10680889D02*
X15524467Y-10699936D01*
X15524467Y-10699936D02*
X15514943Y-10709460D01*
X15514943Y-10709460D02*
X15495896Y-10718984D01*
X15495896Y-10718984D02*
X15457801Y-10718984D01*
X15457801Y-10718984D02*
X15438753Y-10709460D01*
X15619705Y-10699936D02*
X15629229Y-10709460D01*
X15629229Y-10709460D02*
X15619705Y-10718984D01*
X15619705Y-10718984D02*
X15610182Y-10709460D01*
X15610182Y-10709460D02*
X15619705Y-10699936D01*
X15619705Y-10699936D02*
X15619705Y-10718984D01*
X15619705Y-10595174D02*
X15629229Y-10604698D01*
X15629229Y-10604698D02*
X15619705Y-10614222D01*
X15619705Y-10614222D02*
X15610182Y-10604698D01*
X15610182Y-10604698D02*
X15619705Y-10595174D01*
X15619705Y-10595174D02*
X15619705Y-10614222D01*
M02*
