%TF.GenerationSoftware,KiCad,Pcbnew,8.0.7-8.0.7-0~ubuntu24.04.1*%
%TF.CreationDate,2024-12-31T11:08:09-07:00*%
%TF.ProjectId,Verticale Sensor Spacer,56657274-6963-4616-9c65-2053656e736f,V1*%
%TF.SameCoordinates,Original*%
%TF.FileFunction,Drillmap*%
%TF.FilePolarity,Positive*%
%FSLAX45Y45*%
G04 Gerber Fmt 4.5, Leading zero omitted, Abs format (unit mm)*
G04 Created by KiCad (PCBNEW 8.0.7-8.0.7-0~ubuntu24.04.1) date 2024-12-31 11:08:09*
%MOMM*%
%LPD*%
G01*
G04 APERTURE LIST*
%ADD10C,0.050000*%
%ADD11C,0.200000*%
%ADD12C,0.100000*%
G04 APERTURE END LIST*
D10*
X14890000Y-9985000D02*
X14890000Y-10255000D01*
X14740000Y-9835000D02*
G75*
G02*
X14890000Y-9985000I0J-150000D01*
G01*
X14140000Y-9835000D02*
X14740000Y-9835000D01*
X14140000Y-10405000D02*
G75*
G02*
X13990000Y-10255000I0J150000D01*
G01*
X14890000Y-10255000D02*
G75*
G02*
X14740000Y-10405000I-150000J0D01*
G01*
X13990000Y-10255000D02*
X13990000Y-9985000D01*
X13990000Y-9985000D02*
G75*
G02*
X14140000Y-9835000I150000J0D01*
G01*
X14740000Y-10405000D02*
X14140000Y-10405000D01*
D11*
D12*
X14121003Y-9885023D02*
X14151003Y-9915023D01*
X14151003Y-9885023D02*
X14121003Y-9915023D01*
X14121142Y-10324848D02*
X14151142Y-10354848D01*
X14151142Y-10324848D02*
X14121142Y-10354848D01*
X14122596Y-10105263D02*
X14152596Y-10135263D01*
X14152596Y-10105263D02*
X14122596Y-10135263D01*
X14197002Y-9884583D02*
X14227002Y-9914583D01*
X14227002Y-9884583D02*
X14197002Y-9914583D01*
X14197140Y-10325372D02*
X14227140Y-10355372D01*
X14227140Y-10325372D02*
X14197140Y-10355372D01*
X14220000Y-10104943D02*
X14250000Y-10134943D01*
X14250000Y-10104943D02*
X14220000Y-10134943D01*
X14273001Y-9885013D02*
X14303001Y-9915013D01*
X14303001Y-9885013D02*
X14273001Y-9915013D01*
X14273140Y-10324999D02*
X14303140Y-10354999D01*
X14303140Y-10324999D02*
X14273140Y-10354999D01*
X14311575Y-10105407D02*
X14341575Y-10135407D01*
X14341575Y-10105407D02*
X14311575Y-10135407D01*
X14349001Y-9884931D02*
X14379001Y-9914931D01*
X14379001Y-9884931D02*
X14349001Y-9914931D01*
X14349140Y-10325000D02*
X14379140Y-10355000D01*
X14379140Y-10325000D02*
X14349140Y-10355000D01*
X14425000Y-9885408D02*
X14455000Y-9915408D01*
X14455000Y-9885408D02*
X14425000Y-9915408D01*
X14425000Y-10105000D02*
X14455000Y-10135000D01*
X14455000Y-10105000D02*
X14425000Y-10135000D01*
X14425140Y-10325000D02*
X14455140Y-10355000D01*
X14455140Y-10325000D02*
X14425140Y-10355000D01*
X14500998Y-9884891D02*
X14530998Y-9914891D01*
X14530998Y-9884891D02*
X14500998Y-9914891D01*
X14501140Y-10325000D02*
X14531140Y-10355000D01*
X14531140Y-10325000D02*
X14501140Y-10355000D01*
X14537719Y-10103648D02*
X14567719Y-10133648D01*
X14567719Y-10103648D02*
X14537719Y-10133648D01*
X14576999Y-9885020D02*
X14606999Y-9915020D01*
X14606999Y-9885020D02*
X14576999Y-9915020D01*
X14577141Y-10325000D02*
X14607141Y-10355000D01*
X14607141Y-10325000D02*
X14577141Y-10355000D01*
X14635078Y-10105078D02*
X14665078Y-10135078D01*
X14665078Y-10105078D02*
X14635078Y-10135078D01*
X14652998Y-9884583D02*
X14682998Y-9914583D01*
X14682998Y-9884583D02*
X14652998Y-9914583D01*
X14653298Y-10324999D02*
X14683298Y-10354999D01*
X14683298Y-10324999D02*
X14653298Y-10354999D01*
X14727326Y-10104644D02*
X14757326Y-10134644D01*
X14757326Y-10104644D02*
X14727326Y-10134644D01*
X14728995Y-9885192D02*
X14758995Y-9915192D01*
X14758995Y-9885192D02*
X14728995Y-9915192D01*
X14729298Y-10325008D02*
X14759298Y-10355008D01*
X14759298Y-10325008D02*
X14729298Y-10355008D01*
D11*
X14248277Y-10718984D02*
X14248277Y-10518984D01*
X14248277Y-10518984D02*
X14295896Y-10518984D01*
X14295896Y-10518984D02*
X14324467Y-10528508D01*
X14324467Y-10528508D02*
X14343515Y-10547555D01*
X14343515Y-10547555D02*
X14353039Y-10566603D01*
X14353039Y-10566603D02*
X14362562Y-10604698D01*
X14362562Y-10604698D02*
X14362562Y-10633270D01*
X14362562Y-10633270D02*
X14353039Y-10671365D01*
X14353039Y-10671365D02*
X14343515Y-10690412D01*
X14343515Y-10690412D02*
X14324467Y-10709460D01*
X14324467Y-10709460D02*
X14295896Y-10718984D01*
X14295896Y-10718984D02*
X14248277Y-10718984D01*
X14448277Y-10718984D02*
X14448277Y-10585650D01*
X14448277Y-10623746D02*
X14457801Y-10604698D01*
X14457801Y-10604698D02*
X14467324Y-10595174D01*
X14467324Y-10595174D02*
X14486372Y-10585650D01*
X14486372Y-10585650D02*
X14505420Y-10585650D01*
X14572086Y-10718984D02*
X14572086Y-10585650D01*
X14572086Y-10518984D02*
X14562562Y-10528508D01*
X14562562Y-10528508D02*
X14572086Y-10538031D01*
X14572086Y-10538031D02*
X14581610Y-10528508D01*
X14581610Y-10528508D02*
X14572086Y-10518984D01*
X14572086Y-10518984D02*
X14572086Y-10538031D01*
X14695896Y-10718984D02*
X14676848Y-10709460D01*
X14676848Y-10709460D02*
X14667324Y-10690412D01*
X14667324Y-10690412D02*
X14667324Y-10518984D01*
X14800658Y-10718984D02*
X14781610Y-10709460D01*
X14781610Y-10709460D02*
X14772086Y-10690412D01*
X14772086Y-10690412D02*
X14772086Y-10518984D01*
X15029229Y-10718984D02*
X15029229Y-10518984D01*
X15029229Y-10518984D02*
X15095896Y-10661841D01*
X15095896Y-10661841D02*
X15162562Y-10518984D01*
X15162562Y-10518984D02*
X15162562Y-10718984D01*
X15343515Y-10718984D02*
X15343515Y-10614222D01*
X15343515Y-10614222D02*
X15333991Y-10595174D01*
X15333991Y-10595174D02*
X15314943Y-10585650D01*
X15314943Y-10585650D02*
X15276848Y-10585650D01*
X15276848Y-10585650D02*
X15257801Y-10595174D01*
X15343515Y-10709460D02*
X15324467Y-10718984D01*
X15324467Y-10718984D02*
X15276848Y-10718984D01*
X15276848Y-10718984D02*
X15257801Y-10709460D01*
X15257801Y-10709460D02*
X15248277Y-10690412D01*
X15248277Y-10690412D02*
X15248277Y-10671365D01*
X15248277Y-10671365D02*
X15257801Y-10652317D01*
X15257801Y-10652317D02*
X15276848Y-10642793D01*
X15276848Y-10642793D02*
X15324467Y-10642793D01*
X15324467Y-10642793D02*
X15343515Y-10633270D01*
X15438753Y-10585650D02*
X15438753Y-10785650D01*
X15438753Y-10595174D02*
X15457801Y-10585650D01*
X15457801Y-10585650D02*
X15495896Y-10585650D01*
X15495896Y-10585650D02*
X15514943Y-10595174D01*
X15514943Y-10595174D02*
X15524467Y-10604698D01*
X15524467Y-10604698D02*
X15533991Y-10623746D01*
X15533991Y-10623746D02*
X15533991Y-10680889D01*
X15533991Y-10680889D02*
X15524467Y-10699936D01*
X15524467Y-10699936D02*
X15514943Y-10709460D01*
X15514943Y-10709460D02*
X15495896Y-10718984D01*
X15495896Y-10718984D02*
X15457801Y-10718984D01*
X15457801Y-10718984D02*
X15438753Y-10709460D01*
X15619705Y-10699936D02*
X15629229Y-10709460D01*
X15629229Y-10709460D02*
X15619705Y-10718984D01*
X15619705Y-10718984D02*
X15610182Y-10709460D01*
X15610182Y-10709460D02*
X15619705Y-10699936D01*
X15619705Y-10699936D02*
X15619705Y-10718984D01*
X15619705Y-10595174D02*
X15629229Y-10604698D01*
X15629229Y-10604698D02*
X15619705Y-10614222D01*
X15619705Y-10614222D02*
X15610182Y-10604698D01*
X15610182Y-10604698D02*
X15619705Y-10595174D01*
X15619705Y-10595174D02*
X15619705Y-10614222D01*
D12*
X13957500Y-11032500D02*
X13987500Y-11062500D01*
X13987500Y-11032500D02*
X13957500Y-11062500D01*
D11*
X14286372Y-10938984D02*
X14305420Y-10938984D01*
X14305420Y-10938984D02*
X14324467Y-10948508D01*
X14324467Y-10948508D02*
X14333991Y-10958031D01*
X14333991Y-10958031D02*
X14343515Y-10977079D01*
X14343515Y-10977079D02*
X14353039Y-11015174D01*
X14353039Y-11015174D02*
X14353039Y-11062793D01*
X14353039Y-11062793D02*
X14343515Y-11100889D01*
X14343515Y-11100889D02*
X14333991Y-11119936D01*
X14333991Y-11119936D02*
X14324467Y-11129460D01*
X14324467Y-11129460D02*
X14305420Y-11138984D01*
X14305420Y-11138984D02*
X14286372Y-11138984D01*
X14286372Y-11138984D02*
X14267324Y-11129460D01*
X14267324Y-11129460D02*
X14257801Y-11119936D01*
X14257801Y-11119936D02*
X14248277Y-11100889D01*
X14248277Y-11100889D02*
X14238753Y-11062793D01*
X14238753Y-11062793D02*
X14238753Y-11015174D01*
X14238753Y-11015174D02*
X14248277Y-10977079D01*
X14248277Y-10977079D02*
X14257801Y-10958031D01*
X14257801Y-10958031D02*
X14267324Y-10948508D01*
X14267324Y-10948508D02*
X14286372Y-10938984D01*
X14438753Y-11119936D02*
X14448277Y-11129460D01*
X14448277Y-11129460D02*
X14438753Y-11138984D01*
X14438753Y-11138984D02*
X14429229Y-11129460D01*
X14429229Y-11129460D02*
X14438753Y-11119936D01*
X14438753Y-11119936D02*
X14438753Y-11138984D01*
X14514943Y-10938984D02*
X14638753Y-10938984D01*
X14638753Y-10938984D02*
X14572086Y-11015174D01*
X14572086Y-11015174D02*
X14600658Y-11015174D01*
X14600658Y-11015174D02*
X14619705Y-11024698D01*
X14619705Y-11024698D02*
X14629229Y-11034222D01*
X14629229Y-11034222D02*
X14638753Y-11053270D01*
X14638753Y-11053270D02*
X14638753Y-11100889D01*
X14638753Y-11100889D02*
X14629229Y-11119936D01*
X14629229Y-11119936D02*
X14619705Y-11129460D01*
X14619705Y-11129460D02*
X14600658Y-11138984D01*
X14600658Y-11138984D02*
X14543515Y-11138984D01*
X14543515Y-11138984D02*
X14524467Y-11129460D01*
X14524467Y-11129460D02*
X14514943Y-11119936D01*
X14762562Y-10938984D02*
X14781610Y-10938984D01*
X14781610Y-10938984D02*
X14800658Y-10948508D01*
X14800658Y-10948508D02*
X14810182Y-10958031D01*
X14810182Y-10958031D02*
X14819705Y-10977079D01*
X14819705Y-10977079D02*
X14829229Y-11015174D01*
X14829229Y-11015174D02*
X14829229Y-11062793D01*
X14829229Y-11062793D02*
X14819705Y-11100889D01*
X14819705Y-11100889D02*
X14810182Y-11119936D01*
X14810182Y-11119936D02*
X14800658Y-11129460D01*
X14800658Y-11129460D02*
X14781610Y-11138984D01*
X14781610Y-11138984D02*
X14762562Y-11138984D01*
X14762562Y-11138984D02*
X14743515Y-11129460D01*
X14743515Y-11129460D02*
X14733991Y-11119936D01*
X14733991Y-11119936D02*
X14724467Y-11100889D01*
X14724467Y-11100889D02*
X14714943Y-11062793D01*
X14714943Y-11062793D02*
X14714943Y-11015174D01*
X14714943Y-11015174D02*
X14724467Y-10977079D01*
X14724467Y-10977079D02*
X14733991Y-10958031D01*
X14733991Y-10958031D02*
X14743515Y-10948508D01*
X14743515Y-10948508D02*
X14762562Y-10938984D01*
X14953039Y-10938984D02*
X14972086Y-10938984D01*
X14972086Y-10938984D02*
X14991134Y-10948508D01*
X14991134Y-10948508D02*
X15000658Y-10958031D01*
X15000658Y-10958031D02*
X15010182Y-10977079D01*
X15010182Y-10977079D02*
X15019705Y-11015174D01*
X15019705Y-11015174D02*
X15019705Y-11062793D01*
X15019705Y-11062793D02*
X15010182Y-11100889D01*
X15010182Y-11100889D02*
X15000658Y-11119936D01*
X15000658Y-11119936D02*
X14991134Y-11129460D01*
X14991134Y-11129460D02*
X14972086Y-11138984D01*
X14972086Y-11138984D02*
X14953039Y-11138984D01*
X14953039Y-11138984D02*
X14933991Y-11129460D01*
X14933991Y-11129460D02*
X14924467Y-11119936D01*
X14924467Y-11119936D02*
X14914943Y-11100889D01*
X14914943Y-11100889D02*
X14905420Y-11062793D01*
X14905420Y-11062793D02*
X14905420Y-11015174D01*
X14905420Y-11015174D02*
X14914943Y-10977079D01*
X14914943Y-10977079D02*
X14924467Y-10958031D01*
X14924467Y-10958031D02*
X14933991Y-10948508D01*
X14933991Y-10948508D02*
X14953039Y-10938984D01*
X15105420Y-11138984D02*
X15105420Y-11005650D01*
X15105420Y-11024698D02*
X15114943Y-11015174D01*
X15114943Y-11015174D02*
X15133991Y-11005650D01*
X15133991Y-11005650D02*
X15162563Y-11005650D01*
X15162563Y-11005650D02*
X15181610Y-11015174D01*
X15181610Y-11015174D02*
X15191134Y-11034222D01*
X15191134Y-11034222D02*
X15191134Y-11138984D01*
X15191134Y-11034222D02*
X15200658Y-11015174D01*
X15200658Y-11015174D02*
X15219705Y-11005650D01*
X15219705Y-11005650D02*
X15248277Y-11005650D01*
X15248277Y-11005650D02*
X15267324Y-11015174D01*
X15267324Y-11015174D02*
X15276848Y-11034222D01*
X15276848Y-11034222D02*
X15276848Y-11138984D01*
X15372086Y-11138984D02*
X15372086Y-11005650D01*
X15372086Y-11024698D02*
X15381610Y-11015174D01*
X15381610Y-11015174D02*
X15400658Y-11005650D01*
X15400658Y-11005650D02*
X15429229Y-11005650D01*
X15429229Y-11005650D02*
X15448277Y-11015174D01*
X15448277Y-11015174D02*
X15457801Y-11034222D01*
X15457801Y-11034222D02*
X15457801Y-11138984D01*
X15457801Y-11034222D02*
X15467324Y-11015174D01*
X15467324Y-11015174D02*
X15486372Y-11005650D01*
X15486372Y-11005650D02*
X15514943Y-11005650D01*
X15514943Y-11005650D02*
X15533991Y-11015174D01*
X15533991Y-11015174D02*
X15543515Y-11034222D01*
X15543515Y-11034222D02*
X15543515Y-11138984D01*
X15933991Y-10929460D02*
X15762563Y-11186603D01*
X16191134Y-10938984D02*
X16210182Y-10938984D01*
X16210182Y-10938984D02*
X16229229Y-10948508D01*
X16229229Y-10948508D02*
X16238753Y-10958031D01*
X16238753Y-10958031D02*
X16248277Y-10977079D01*
X16248277Y-10977079D02*
X16257801Y-11015174D01*
X16257801Y-11015174D02*
X16257801Y-11062793D01*
X16257801Y-11062793D02*
X16248277Y-11100889D01*
X16248277Y-11100889D02*
X16238753Y-11119936D01*
X16238753Y-11119936D02*
X16229229Y-11129460D01*
X16229229Y-11129460D02*
X16210182Y-11138984D01*
X16210182Y-11138984D02*
X16191134Y-11138984D01*
X16191134Y-11138984D02*
X16172086Y-11129460D01*
X16172086Y-11129460D02*
X16162563Y-11119936D01*
X16162563Y-11119936D02*
X16153039Y-11100889D01*
X16153039Y-11100889D02*
X16143515Y-11062793D01*
X16143515Y-11062793D02*
X16143515Y-11015174D01*
X16143515Y-11015174D02*
X16153039Y-10977079D01*
X16153039Y-10977079D02*
X16162563Y-10958031D01*
X16162563Y-10958031D02*
X16172086Y-10948508D01*
X16172086Y-10948508D02*
X16191134Y-10938984D01*
X16343515Y-11119936D02*
X16353039Y-11129460D01*
X16353039Y-11129460D02*
X16343515Y-11138984D01*
X16343515Y-11138984D02*
X16333991Y-11129460D01*
X16333991Y-11129460D02*
X16343515Y-11119936D01*
X16343515Y-11119936D02*
X16343515Y-11138984D01*
X16476848Y-10938984D02*
X16495896Y-10938984D01*
X16495896Y-10938984D02*
X16514944Y-10948508D01*
X16514944Y-10948508D02*
X16524467Y-10958031D01*
X16524467Y-10958031D02*
X16533991Y-10977079D01*
X16533991Y-10977079D02*
X16543515Y-11015174D01*
X16543515Y-11015174D02*
X16543515Y-11062793D01*
X16543515Y-11062793D02*
X16533991Y-11100889D01*
X16533991Y-11100889D02*
X16524467Y-11119936D01*
X16524467Y-11119936D02*
X16514944Y-11129460D01*
X16514944Y-11129460D02*
X16495896Y-11138984D01*
X16495896Y-11138984D02*
X16476848Y-11138984D01*
X16476848Y-11138984D02*
X16457801Y-11129460D01*
X16457801Y-11129460D02*
X16448277Y-11119936D01*
X16448277Y-11119936D02*
X16438753Y-11100889D01*
X16438753Y-11100889D02*
X16429229Y-11062793D01*
X16429229Y-11062793D02*
X16429229Y-11015174D01*
X16429229Y-11015174D02*
X16438753Y-10977079D01*
X16438753Y-10977079D02*
X16448277Y-10958031D01*
X16448277Y-10958031D02*
X16457801Y-10948508D01*
X16457801Y-10948508D02*
X16476848Y-10938984D01*
X16733991Y-11138984D02*
X16619706Y-11138984D01*
X16676848Y-11138984D02*
X16676848Y-10938984D01*
X16676848Y-10938984D02*
X16657801Y-10967555D01*
X16657801Y-10967555D02*
X16638753Y-10986603D01*
X16638753Y-10986603D02*
X16619706Y-10996127D01*
X16924468Y-11138984D02*
X16810182Y-11138984D01*
X16867325Y-11138984D02*
X16867325Y-10938984D01*
X16867325Y-10938984D02*
X16848277Y-10967555D01*
X16848277Y-10967555D02*
X16829229Y-10986603D01*
X16829229Y-10986603D02*
X16810182Y-10996127D01*
X17038753Y-11024698D02*
X17019706Y-11015174D01*
X17019706Y-11015174D02*
X17010182Y-11005650D01*
X17010182Y-11005650D02*
X17000658Y-10986603D01*
X17000658Y-10986603D02*
X17000658Y-10977079D01*
X17000658Y-10977079D02*
X17010182Y-10958031D01*
X17010182Y-10958031D02*
X17019706Y-10948508D01*
X17019706Y-10948508D02*
X17038753Y-10938984D01*
X17038753Y-10938984D02*
X17076849Y-10938984D01*
X17076849Y-10938984D02*
X17095896Y-10948508D01*
X17095896Y-10948508D02*
X17105420Y-10958031D01*
X17105420Y-10958031D02*
X17114944Y-10977079D01*
X17114944Y-10977079D02*
X17114944Y-10986603D01*
X17114944Y-10986603D02*
X17105420Y-11005650D01*
X17105420Y-11005650D02*
X17095896Y-11015174D01*
X17095896Y-11015174D02*
X17076849Y-11024698D01*
X17076849Y-11024698D02*
X17038753Y-11024698D01*
X17038753Y-11024698D02*
X17019706Y-11034222D01*
X17019706Y-11034222D02*
X17010182Y-11043746D01*
X17010182Y-11043746D02*
X17000658Y-11062793D01*
X17000658Y-11062793D02*
X17000658Y-11100889D01*
X17000658Y-11100889D02*
X17010182Y-11119936D01*
X17010182Y-11119936D02*
X17019706Y-11129460D01*
X17019706Y-11129460D02*
X17038753Y-11138984D01*
X17038753Y-11138984D02*
X17076849Y-11138984D01*
X17076849Y-11138984D02*
X17095896Y-11129460D01*
X17095896Y-11129460D02*
X17105420Y-11119936D01*
X17105420Y-11119936D02*
X17114944Y-11100889D01*
X17114944Y-11100889D02*
X17114944Y-11062793D01*
X17114944Y-11062793D02*
X17105420Y-11043746D01*
X17105420Y-11043746D02*
X17095896Y-11034222D01*
X17095896Y-11034222D02*
X17076849Y-11024698D01*
X17191134Y-10938984D02*
X17191134Y-10977079D01*
X17267325Y-10938984D02*
X17267325Y-10977079D01*
X17562563Y-11215174D02*
X17553039Y-11205650D01*
X17553039Y-11205650D02*
X17533991Y-11177079D01*
X17533991Y-11177079D02*
X17524468Y-11158031D01*
X17524468Y-11158031D02*
X17514944Y-11129460D01*
X17514944Y-11129460D02*
X17505420Y-11081841D01*
X17505420Y-11081841D02*
X17505420Y-11043746D01*
X17505420Y-11043746D02*
X17514944Y-10996127D01*
X17514944Y-10996127D02*
X17524468Y-10967555D01*
X17524468Y-10967555D02*
X17533991Y-10948508D01*
X17533991Y-10948508D02*
X17553039Y-10919936D01*
X17553039Y-10919936D02*
X17562563Y-10910412D01*
X17629230Y-10958031D02*
X17638753Y-10948508D01*
X17638753Y-10948508D02*
X17657801Y-10938984D01*
X17657801Y-10938984D02*
X17705420Y-10938984D01*
X17705420Y-10938984D02*
X17724468Y-10948508D01*
X17724468Y-10948508D02*
X17733991Y-10958031D01*
X17733991Y-10958031D02*
X17743515Y-10977079D01*
X17743515Y-10977079D02*
X17743515Y-10996127D01*
X17743515Y-10996127D02*
X17733991Y-11024698D01*
X17733991Y-11024698D02*
X17619706Y-11138984D01*
X17619706Y-11138984D02*
X17743515Y-11138984D01*
X17924468Y-10938984D02*
X17829230Y-10938984D01*
X17829230Y-10938984D02*
X17819706Y-11034222D01*
X17819706Y-11034222D02*
X17829230Y-11024698D01*
X17829230Y-11024698D02*
X17848277Y-11015174D01*
X17848277Y-11015174D02*
X17895896Y-11015174D01*
X17895896Y-11015174D02*
X17914944Y-11024698D01*
X17914944Y-11024698D02*
X17924468Y-11034222D01*
X17924468Y-11034222D02*
X17933991Y-11053270D01*
X17933991Y-11053270D02*
X17933991Y-11100889D01*
X17933991Y-11100889D02*
X17924468Y-11119936D01*
X17924468Y-11119936D02*
X17914944Y-11129460D01*
X17914944Y-11129460D02*
X17895896Y-11138984D01*
X17895896Y-11138984D02*
X17848277Y-11138984D01*
X17848277Y-11138984D02*
X17829230Y-11129460D01*
X17829230Y-11129460D02*
X17819706Y-11119936D01*
X18172087Y-11138984D02*
X18172087Y-10938984D01*
X18257801Y-11138984D02*
X18257801Y-11034222D01*
X18257801Y-11034222D02*
X18248277Y-11015174D01*
X18248277Y-11015174D02*
X18229230Y-11005650D01*
X18229230Y-11005650D02*
X18200658Y-11005650D01*
X18200658Y-11005650D02*
X18181611Y-11015174D01*
X18181611Y-11015174D02*
X18172087Y-11024698D01*
X18381611Y-11138984D02*
X18362563Y-11129460D01*
X18362563Y-11129460D02*
X18353039Y-11119936D01*
X18353039Y-11119936D02*
X18343515Y-11100889D01*
X18343515Y-11100889D02*
X18343515Y-11043746D01*
X18343515Y-11043746D02*
X18353039Y-11024698D01*
X18353039Y-11024698D02*
X18362563Y-11015174D01*
X18362563Y-11015174D02*
X18381611Y-11005650D01*
X18381611Y-11005650D02*
X18410182Y-11005650D01*
X18410182Y-11005650D02*
X18429230Y-11015174D01*
X18429230Y-11015174D02*
X18438753Y-11024698D01*
X18438753Y-11024698D02*
X18448277Y-11043746D01*
X18448277Y-11043746D02*
X18448277Y-11100889D01*
X18448277Y-11100889D02*
X18438753Y-11119936D01*
X18438753Y-11119936D02*
X18429230Y-11129460D01*
X18429230Y-11129460D02*
X18410182Y-11138984D01*
X18410182Y-11138984D02*
X18381611Y-11138984D01*
X18562563Y-11138984D02*
X18543515Y-11129460D01*
X18543515Y-11129460D02*
X18533992Y-11110412D01*
X18533992Y-11110412D02*
X18533992Y-10938984D01*
X18714944Y-11129460D02*
X18695896Y-11138984D01*
X18695896Y-11138984D02*
X18657801Y-11138984D01*
X18657801Y-11138984D02*
X18638753Y-11129460D01*
X18638753Y-11129460D02*
X18629230Y-11110412D01*
X18629230Y-11110412D02*
X18629230Y-11034222D01*
X18629230Y-11034222D02*
X18638753Y-11015174D01*
X18638753Y-11015174D02*
X18657801Y-11005650D01*
X18657801Y-11005650D02*
X18695896Y-11005650D01*
X18695896Y-11005650D02*
X18714944Y-11015174D01*
X18714944Y-11015174D02*
X18724468Y-11034222D01*
X18724468Y-11034222D02*
X18724468Y-11053270D01*
X18724468Y-11053270D02*
X18629230Y-11072317D01*
X18800658Y-11129460D02*
X18819706Y-11138984D01*
X18819706Y-11138984D02*
X18857801Y-11138984D01*
X18857801Y-11138984D02*
X18876849Y-11129460D01*
X18876849Y-11129460D02*
X18886373Y-11110412D01*
X18886373Y-11110412D02*
X18886373Y-11100889D01*
X18886373Y-11100889D02*
X18876849Y-11081841D01*
X18876849Y-11081841D02*
X18857801Y-11072317D01*
X18857801Y-11072317D02*
X18829230Y-11072317D01*
X18829230Y-11072317D02*
X18810182Y-11062793D01*
X18810182Y-11062793D02*
X18800658Y-11043746D01*
X18800658Y-11043746D02*
X18800658Y-11034222D01*
X18800658Y-11034222D02*
X18810182Y-11015174D01*
X18810182Y-11015174D02*
X18829230Y-11005650D01*
X18829230Y-11005650D02*
X18857801Y-11005650D01*
X18857801Y-11005650D02*
X18876849Y-11015174D01*
X18953039Y-11215174D02*
X18962563Y-11205650D01*
X18962563Y-11205650D02*
X18981611Y-11177079D01*
X18981611Y-11177079D02*
X18991134Y-11158031D01*
X18991134Y-11158031D02*
X19000658Y-11129460D01*
X19000658Y-11129460D02*
X19010182Y-11081841D01*
X19010182Y-11081841D02*
X19010182Y-11043746D01*
X19010182Y-11043746D02*
X19000658Y-10996127D01*
X19000658Y-10996127D02*
X18991134Y-10967555D01*
X18991134Y-10967555D02*
X18981611Y-10948508D01*
X18981611Y-10948508D02*
X18962563Y-10919936D01*
X18962563Y-10919936D02*
X18953039Y-10910412D01*
M02*
